# xmcd
#
# Track frame offsets: 
#        150
#        20202
#        39170
#        59825
#        78050
#        97232
#        118430
#        135230
#        154700
#        177205
#
# Disc length: 2585 seconds
#
# Revision: 5
# Processed by: cddbd v1.5.2PL0 Copyright (c) Steve Scherf et al.
# Submitted via: ExactAudioCopy v1.0b3
#
DISCID=830a170a
DTITLE=张雨生 - 天天想你
DYEAR=1988
DGENRE=
TTITLE0=跟着我
TTITLE1=天天想你
TTITLE2=永远都像才认识
TTITLE3=我的阳光我的风
TTITLE4=渺小
TTITLE5=和天一样高
TTITLE6=告诉我亲爱的
TTITLE7=没有不可能的事
TTITLE8=不是因为寂寞
TTITLE9=就算为你，也是为我
EXTD=YEAR: 1988
EXTT0=
EXTT1=
EXTT2=
EXTT3=
EXTT4=
EXTT5=
EXTT6=
EXTT7=
EXTT8=
EXTT9=
PLAYORDER=
